# xmcd CD database file
#
# Track frame offsets:
#	150
#	23785
#	40465
#	42750
#
# Disc length: 837 seconds
#
# Revision: 0
# Processed by: cddbd v1.5PL3 Copyright (c) Steve Scherf et al.
# Submitted via: CDex 1.51
#
DISCID=2a034304
DTITLE=JanneDaArc - FREEDOM
DYEAR=2004
DGENRE=JPop
TTITLE0=Freedom
TTITLE1=Survive？
TTITLE2=Untitled
TTITLE3=桜
EXTD=YEAR: 2004
EXTT0=
EXTT1=
EXTT2=
EXTT3=
PLAYORDER=
